
        <svg xmlns="http://www.w3.org/2000/svg" xmlns:xlink="http://www.w3.org/1999/xlink" version="1.1" width="3192" 
        height="3154.9629709994138" viewBox="0 0 3192 3154.9629709994138">
			
			<g transform="scale(9.6) translate(10, 10)">
				<defs id="SvgjsDefs25734"><linearGradient id="SvgjsLinearGradient25741"><stop id="SvgjsStop25742" stop-color="#fbb040" offset="0"></stop><stop id="SvgjsStop25743" stop-color="#f9ed32" offset="1"></stop></linearGradient></defs><g id="SvgjsG25735" featureKey="rootContainer" transform="matrix(2.962557282918362,0,0,2.962557282918362,-0.11114361282025892,0.08494919233090518)" fill="url(#SvgjsLinearGradient25741)"><path xmlns="http://www.w3.org/2000/svg" d="M104.6 41.3a52.2 52.2 0 0 0-3.5-11.2A51.1 51.1 0 0 0 44.3 1a49.6 49.6 0 0 0-5.7 1.5 49.1 49.1 0 0 0-7.9 2.7A51.6 51.6 0 0 0 6.3 77a53.7 53.7 0 0 0 4.1 6.4 57 57 0 0 0 5 5.7 51.7 51.7 0 0 0 55.3 11.5l3.3-1.4 3-1.5a50.9 50.9 0 0 0 5.8-3.8l2.7-2.1 1.2-1.1 1.1-.9 2-1.8.7-.6.6-.7 1.8-2a48.5 48.5 0 0 0 5.9-8.3 50.4 50.4 0 0 0 5.6-14.7 51.6 51.6 0 0 0 .2-20.4zM87.1 88.6l-1.2 1.1-1.2 1.1-2.6 2.1a49.5 49.5 0 0 1-5.7 3.6l-3 1.5-3.2 1.3-4.9 1.6h-.5a50.9 50.9 0 0 1-20.3.1 51.8 51.8 0 0 1-11.1-3.6A50.5 50.5 0 0 1 22.9 91a52 52 0 0 1-9.1-9.4 50.3 50.3 0 0 1-3.7-5.7c-.6-1-1.1-2-1.6-3.1s-1-2.1-1.3-3.2a50.6 50.6 0 0 1 8.6-50.8l.8-.8.5-.6.6-.6 1.2-1.1 2.4-2.1A50.5 50.5 0 0 1 62.4 3.2a48.5 48.5 0 0 1 14.7 5.2 47 47 0 0 1 8.3 5.8l2 1.8.7.6.6.7 1.8 2a49.7 49.7 0 0 1 11.3 22.9 50.8 50.8 0 0 1-.1 20.2 51.6 51.6 0 0 1-3.6 11 50.2 50.2 0 0 1-6.6 10.5l-2.1 2.4zm-44.9 13a50.1 50.1 0 0 1-13.7-5 51.8 51.8 0 0 1-6.2-4 55.2 55.2 0 0 1-5.5-4.8 49.9 49.9 0 0 1-11-53.2c.4-1.1.9-2.1 1.3-3.1l.6-1.3a50.2 50.2 0 0 0-3.4 11 51.3 51.3 0 0 0 2.4 28.5c.4 1.1.9 2.2 1.4 3.2s1 2.1 1.6 3.1a50.6 50.6 0 0 0 3.7 5.8 51.5 51.5 0 0 0 9.2 9.5 50.9 50.9 0 0 0 10.7 6.5 51 51 0 0 0 28.7 3.9 50.3 50.3 0 0 1-19.8-.1zm61.9-39.9a50.2 50.2 0 0 1-5.5 14.7 48.4 48.4 0 0 1-5.8 8.3l-1.8 2-.6.7-.7.6-1.9 1.7h.2l2.3-2.4 2.1-2.5A51.3 51.3 0 0 0 98.9 74a51.4 51.4 0 0 0 3.2-31.6 49.6 49.6 0 0 0-2.5-8.2 49.4 49.4 0 0 0-3.1-6.5 48.7 48.7 0 0 0-5.9-8.3l-1.8-2-.6-.7-.7-.6-2-1.8A49.9 49.9 0 0 0 77.3 8a49.3 49.3 0 0 0-6.5-3.2 49.8 49.8 0 0 0-8.2-2.6A52.2 52.2 0 0 0 49.9 1a50.8 50.8 0 0 1 22.7 3.2l3.2 1.3 3.1 1.6a50.1 50.1 0 0 1 5.7 3.7l2.6 2.1 1.2 1.1 1.2 1.1 2.3 2.3 2.1 2.4a50.4 50.4 0 0 1 6.5 10.5 51.6 51.6 0 0 1 3.6 11 51.1 51.1 0 0 1 0 20.3z"></path></g><g id="SvgjsG25736" featureKey="symbolFeature-0" transform="matrix(0.6425496482992696,0,0,0.6425496482992696,123.77748571173653,101.07235105510219)" fill="#facf39"><g xmlns="http://www.w3.org/2000/svg"><path d="M51.297,49.234C51.297,39.206,70,42.026,70,30.743V18.715c0,11.284-18.703,8.462-18.703,18.491V49.234z"></path><path d="M51.297,33.521C51.297,23.49,70,26.312,70,15.027V3c0,11.283-18.703,8.463-18.703,18.492V33.521z"></path><path d="M51.297,80.665C51.297,70.636,70,73.454,70,62.171V50.144c0,11.284-18.703,8.463-18.703,18.493V80.665z"></path><path d="M51.297,64.95C51.297,54.919,70,57.739,70,46.457V34.429c0,11.284-18.703,8.463-18.703,18.492V64.95z"></path><path d="M51.297,96.378C51.297,86.349,70,89.17,70,77.886V65.856c0,11.285-18.703,8.463-18.703,18.493V96.378z"></path><path d="M48.62,49.234c0-10.028-18.704-7.208-18.704-18.491V18.715c0,11.284,18.704,8.462,18.704,18.491V49.234z"></path><path d="M48.62,33.521c0-10.031-18.704-7.209-18.704-18.494V3c0,11.283,18.704,8.463,18.704,18.492V33.521z"></path><path d="M48.62,80.665c0-10.029-18.704-7.211-18.704-18.494V50.144c0,11.284,18.704,8.463,18.704,18.493V80.665z"></path><path d="M48.62,64.95c0-10.031-18.704-7.211-18.704-18.494V34.429c0,11.284,18.704,8.463,18.704,18.492V64.95z"></path><path d="M48.62,96.378c0-10.029-18.704-7.208-18.704-18.492V65.856c0,11.285,18.704,8.463,18.704,18.493V96.378z"></path></g></g><g id="SvgjsG25737" featureKey="nameFeature-0" transform="matrix(0.7572601869786514,0,0,0.7572601869786514,54.606641230682996,174.21578154217582)" fill="#ffffff"><path d="M1.84 37.08 c1.76 1.64 5.4 3.32 9.04 3.32 c5.6 0 9.16 -2.88 9.16 -7.4 c0 -3.68 -1.76 -5.84 -7.84 -9.28 c-4.64 -2.68 -5.76 -3.56 -5.76 -5.32 c0 -1.88 1.76 -3.36 4.72 -3.36 c1.72 0 4 0.76 5.32 1.6 l1.92 -2.88 c-1.88 -1.24 -4.84 -2.16 -7.2 -2.16 c-5.16 0 -8.6 2.96 -8.6 6.84 c0 3.44 1.72 5.16 7 8.04 c4.68 2.56 6.6 4.44 6.6 6.48 c0 2.4 -2.08 3.84 -5.32 3.84 c-2.8 0 -5.6 -1.32 -7 -2.6 z M26.358999999999998 40 l0 -28 l3.6 0 l0 28 l-3.6 0 z M64.598 11.600000000000001 l0.44 0 l0 28.4 l-3.56 0 l0 -18.84 l-9.92 12.96 l-0.24 0 l-9.92 -12.92 l0 18.8 l-3.56 0 l0 -28.4 l0.4 0 l13.2 16.8 z M83.517 12 c6.56 0 9.64 4.96 9.64 10.2 s-3.08 10.2 -9.64 10.2 l-7 0 l0 7.6 l-3.6 0 l0 -28 l10.6 0 z M83.357 28.96 c3.68 0 6.12 -2.84 6.12 -6.76 s-2.44 -6.76 -6.12 -6.76 l-6.84 0 l0 13.52 l6.84 0 z M103.51599999999999 36.56 l11.84 0 l-0.24 3.44 l-15.2 0 l0 -28 l3.6 0 l0 24.56 z M141.71499999999997 12 l-9.88 15.56 l0 12.44 l-3.6 0 l0 -12.4 l-9.92 -15.6 l4.08 0 l7.64 12.04 l7.6 -12.04 l4.08 0 z M165.513 15.440000000000001 l0 8.64 l8.56 0 l0 3.44 l-8.56 0 l0 12.48 l-3.6 0 l0 -28 l15.92 0 l0.24 3.44 l-12.56 0 z M202.752 40 l-2.44 -5.68 l-12.48 0 l-2.44 5.68 l-3.84 0 l12.32 -28.4 l0.4 0 l12.32 28.4 l-3.84 0 z M189.272 30.96 l9.6 0 l-4.8 -11.08 z M232.071 22.12 c0 4.52 -2.12 8.4 -6.48 9.68 l6.04 8.2 l-4.32 0 l-5.72 -7.76 l-6.28 0 l0 7.76 l-3.6 0 l0 -28 l10.56 0 c6.6 0 9.8 4.56 9.8 10.12 z M215.311 15.36 l0 13.48 l6.8 0 c4.52 0 6.36 -3.32 6.36 -6.72 s-1.84 -6.76 -6.36 -6.76 l-6.8 0 z M265.51000000000005 11.600000000000001 l0.44 0 l0 28.4 l-3.56 0 l0 -18.84 l-9.92 12.96 l-0.24 0 l-9.92 -12.92 l0 18.8 l-3.56 0 l0 -28.4 l0.4 0 l13.2 16.8 z"></path></g>
			</g>
		</svg>
	